HIERARCHY
ROOT Hips
{
	OFFSET 0.000000 121.760803 0.000000
	CHANNELS 6 Xposition Yposition Zposition Xrotation Yrotation Zrotation 
	JOINT Spine
	{
		OFFSET 0.072000 7.257294 -0.789700
		CHANNELS 3 Xrotation Yrotation Zrotation
		JOINT Spine1
		{
			OFFSET 0.000000 12.508769 -0.658067
			CHANNELS 3 Xrotation Yrotation Zrotation
			JOINT Spine1_split
			{
				OFFSET 0.000000 12.508769 -0.658067
				CHANNELS 3 Xrotation Yrotation Zrotation
				JOINT Spine2
				{
					OFFSET 0.000000 12.508769 -0.658067
					CHANNELS 3 Xrotation Yrotation Zrotation
					JOINT Neck
					{
						OFFSET 0.000000 14.033295 7.520400
						CHANNELS 3 Xrotation Yrotation Zrotation
						JOINT Head
						{
							OFFSET 0.000000 8.198502 5.703100
							CHANNELS 3 Xrotation Yrotation Zrotation
							JOINT HeadTop_End
							{
								OFFSET 0.000000 17.760803 13.332701
								CHANNELS 3 Xrotation Yrotation Zrotation
								End Site
								{
									OFFSET 0.000000 0.000000 0.000000
								}
							}
						}
					}
					JOINT LeftShoulder
					{
						OFFSET 6.292450 5.785301 -0.669000
						CHANNELS 3 Xrotation Yrotation Zrotation
						JOINT LeftShoulder_split
						{
							OFFSET 6.292450 5.785301 -0.669000
							CHANNELS 3 Xrotation Yrotation Zrotation
							JOINT LeftArm
							{
								OFFSET 13.907140 -6.093903 1.965100
								CHANNELS 3 Xrotation Yrotation Zrotation
								JOINT LeftForeArm
								{
									OFFSET 34.140198 0.000000 0.000000
									CHANNELS 3 Xrotation Yrotation Zrotation
									JOINT LeftHand
									{
										OFFSET 40.960209 0.000000 0.000000
										CHANNELS 3 Xrotation Yrotation Zrotation
										JOINT LeftHandThumb1
										{
											OFFSET 10.006996 -7.170425 9.573125
											CHANNELS 3 Xrotation Yrotation Zrotation
											JOINT LeftHandThumb2
											{
												OFFSET 1.835007 -1.059448 1.059443
												CHANNELS 3 Xrotation Yrotation Zrotation
												JOINT LeftHandThumb3
												{
													OFFSET 2.112267 -1.219513 1.219518
													CHANNELS 3 Xrotation Yrotation Zrotation
													JOINT LeftHandThumb4
													{
														OFFSET 4.843811 -2.796570 2.796576
														CHANNELS 3 Xrotation Yrotation Zrotation
														End Site
														{
															OFFSET 0.000000 0.000000 0.000000
														}
													}
												}
											}
										}
										JOINT LeftHandIndex1
										{
											OFFSET 18.389847 -0.922348 4.596882
											CHANNELS 3 Xrotation Yrotation Zrotation
											JOINT LeftHandIndex2
											{
												OFFSET 4.711273 0.000000 0.000000
												CHANNELS 3 Xrotation Yrotation Zrotation
												JOINT LeftHandIndex3
												{
													OFFSET 2.886131 0.000000 0.000000
													CHANNELS 3 Xrotation Yrotation Zrotation
													JOINT LeftHandIndex4
													{
														OFFSET 6.145912 0.000000 0.000000
														CHANNELS 3 Xrotation Yrotation Zrotation
														End Site
														{
															OFFSET 0.000000 0.000000 0.000000
														}
													}
												}
											}
										}
										JOINT LeftHandMiddle1
										{
											OFFSET 18.013008 0.000000 0.000000
											CHANNELS 3 Xrotation Yrotation Zrotation
											JOINT LeftHandMiddle2
											{
												OFFSET 4.946693 0.000000 0.000000
												CHANNELS 3 Xrotation Yrotation Zrotation
												JOINT LeftHandMiddle3
												{
													OFFSET 3.342232 0.000000 0.000000
													CHANNELS 3 Xrotation Yrotation Zrotation
													JOINT LeftHandMiddle4
													{
														OFFSET 4.461754 0.000000 0.000000
														CHANNELS 3 Xrotation Yrotation Zrotation
														End Site
														{
															OFFSET 0.000000 0.000000 0.000000
														}
													}
												}
											}
										}
										JOINT LeftHandRing1
										{
											OFFSET 15.849892 -0.102921 -4.126150
											CHANNELS 3 Xrotation Yrotation Zrotation
											JOINT LeftHandRing2
											{
												OFFSET 3.527054 0.000000 0.000000
												CHANNELS 3 Xrotation Yrotation Zrotation
												JOINT LeftHandRing3
												{
													OFFSET 2.961098 0.000000 0.000000
													CHANNELS 3 Xrotation Yrotation Zrotation
													JOINT LeftHandRing4
													{
														OFFSET 4.927200 0.000000 0.000000
														CHANNELS 3 Xrotation Yrotation Zrotation
														End Site
														{
															OFFSET 0.000000 0.000000 0.000000
														}
													}
												}
											}
										}
										JOINT LeftHandPinky1
										{
											OFFSET 12.791824 -0.832031 -6.799156
											CHANNELS 3 Xrotation Yrotation Zrotation
											JOINT LeftHandPinky2
											{
												OFFSET 3.327133 0.000000 0.000000
												CHANNELS 3 Xrotation Yrotation Zrotation
												JOINT LeftHandPinky3
												{
													OFFSET 3.014900 0.000000 0.000000
													CHANNELS 3 Xrotation Yrotation Zrotation
													JOINT LeftHandPinky4
													{
														OFFSET 5.847786 0.000000 0.000000
														CHANNELS 3 Xrotation Yrotation Zrotation
														End Site
														{
															OFFSET 0.000000 0.000000 0.000000
														}
													}
												}
											}
										}
									}
								}
							}
						}
					}
					JOINT RightShoulder
					{
						OFFSET -6.292450 5.785301 -0.669000
						CHANNELS 3 Xrotation Yrotation Zrotation
						JOINT RightShoulder_split
						{
							OFFSET -6.292450 5.785301 -0.669000
							CHANNELS 3 Xrotation Yrotation Zrotation
							JOINT RightArm
							{
								OFFSET -13.907140 -6.093903 1.965100
								CHANNELS 3 Xrotation Yrotation Zrotation
								JOINT RightForeArm
								{
									OFFSET -34.140198 0.000000 0.000000
									CHANNELS 3 Xrotation Yrotation Zrotation
									JOINT RightHand
									{
										OFFSET -40.960209 0.000000 0.000000
										CHANNELS 3 Xrotation Yrotation Zrotation
										JOINT RightHandThumb1
										{
											OFFSET -10.007050 -7.170456 9.573117
											CHANNELS 3 Xrotation Yrotation Zrotation
											JOINT RightHandThumb2
											{
												OFFSET -1.835007 -1.059448 1.059443
												CHANNELS 3 Xrotation Yrotation Zrotation
												JOINT RightHandThumb3
												{
													OFFSET -2.112267 -1.219513 1.219518
													CHANNELS 3 Xrotation Yrotation Zrotation
													JOINT RightHandThumb4
													{
														OFFSET -4.843834 -2.796585 2.796590
														CHANNELS 3 Xrotation Yrotation Zrotation
														End Site
														{
															OFFSET 0.000000 0.000000 0.000000
														}
													}
												}
											}
										}
										JOINT RightHandIndex1
										{
											OFFSET -18.389870 -0.922424 4.596786
											CHANNELS 3 Xrotation Yrotation Zrotation
											JOINT RightHandIndex2
											{
												OFFSET -4.711273 0.000000 0.000000
												CHANNELS 3 Xrotation Yrotation Zrotation
												JOINT RightHandIndex3
												{
													OFFSET -2.886131 0.000000 0.000000
													CHANNELS 3 Xrotation Yrotation Zrotation
													JOINT RightHandIndex4
													{
														OFFSET -6.145920 0.000000 0.000000
														CHANNELS 3 Xrotation Yrotation Zrotation
														End Site
														{
															OFFSET 0.000000 0.000000 0.000000
														}
													}
												}
											}
										}
										JOINT RightHandMiddle1
										{
											OFFSET -18.013008 0.000000 0.000000
											CHANNELS 3 Xrotation Yrotation Zrotation
											JOINT RightHandMiddle2
											{
												OFFSET -4.946693 0.000000 0.000000
												CHANNELS 3 Xrotation Yrotation Zrotation
												JOINT RightHandMiddle3
												{
													OFFSET -3.342232 0.000000 0.000000
													CHANNELS 3 Xrotation Yrotation Zrotation
													JOINT RightHandMiddle4
													{
														OFFSET -4.461754 0.000000 0.000000
														CHANNELS 3 Xrotation Yrotation Zrotation
														End Site
														{
															OFFSET 0.000000 0.000000 0.000000
														}
													}
												}
											}
										}
										JOINT RightHandRing1
										{
											OFFSET -15.849876 -0.102936 -4.126237
											CHANNELS 3 Xrotation Yrotation Zrotation
											JOINT RightHandRing2
											{
												OFFSET -3.527054 0.000000 0.000000
												CHANNELS 3 Xrotation Yrotation Zrotation
												JOINT RightHandRing3
												{
													OFFSET -2.961098 0.000000 0.000000
													CHANNELS 3 Xrotation Yrotation Zrotation
													JOINT RightHandRing4
													{
														OFFSET -4.927200 0.000000 0.000000
														CHANNELS 3 Xrotation Yrotation Zrotation
														End Site
														{
															OFFSET 0.000000 0.000000 0.000000
														}
													}
												}
											}
										}
										JOINT RightHandPinky1
										{
											OFFSET -12.791786 -0.832077 -6.799222
											CHANNELS 3 Xrotation Yrotation Zrotation
											JOINT RightHandPinky2
											{
												OFFSET -3.327133 0.000000 0.000000
												CHANNELS 3 Xrotation Yrotation Zrotation
												JOINT RightHandPinky3
												{
													OFFSET -3.014900 0.000000 0.000000
													CHANNELS 3 Xrotation Yrotation Zrotation
													JOINT RightHandPinky4
													{
														OFFSET -5.847786 0.000000 0.000000
														CHANNELS 3 Xrotation Yrotation Zrotation
														End Site
														{
															OFFSET 0.000000 0.000000 0.000000
														}
													}
												}
											}
										}
									}
								}
							}
						}
					}
				}
			}
		}
	}
	JOINT LeftUpLeg
	{
		OFFSET 13.026900 -6.336304 -1.092800
		CHANNELS 3 Xrotation Yrotation Zrotation
		JOINT LeftLeg
		{
			OFFSET 0.524474 -46.096886 9.782700
			CHANNELS 3 Xrotation Yrotation Zrotation
			JOINT LeftFoot
			{
				OFFSET -0.524474 -53.427422 -12.948200
				CHANNELS 3 Xrotation Yrotation Zrotation
				JOINT LeftToeBase
				{
					OFFSET 0.192200 -14.009700 16.364100
					CHANNELS 3 Xrotation Yrotation Zrotation
					JOINT LeftToe_End
					{
						OFFSET -1.784700 -0.561700 9.474800
						CHANNELS 3 Xrotation Yrotation Zrotation
						End Site
						{
							OFFSET 0.000000 0.000000 0.000000
						}
					}
				}
			}
		}
	}
	JOINT RightUpLeg
	{
		OFFSET -12.883000 -6.336304 -1.092800
		CHANNELS 3 Xrotation Yrotation Zrotation
		JOINT RightLeg
		{
			OFFSET -0.524587 -46.096825 9.782800
			CHANNELS 3 Xrotation Yrotation Zrotation
			JOINT RightFoot
			{
				OFFSET 0.524587 -53.427383 -12.948300
				CHANNELS 3 Xrotation Yrotation Zrotation
				JOINT RightToeBase
				{
					OFFSET -0.192200 -14.009700 16.364100
					CHANNELS 3 Xrotation Yrotation Zrotation
					JOINT RightToe_End
					{
						OFFSET 1.784700 -0.561700 9.474800
						CHANNELS 3 Xrotation Yrotation Zrotation
						End Site
						{
							OFFSET 0.000000 0.000000 0.000000
						}
					}
				}
			}
		}
	}
}
MOTION
Frames: 4
Frame Time: 0.016667
9.233603 108.792030 134.119064 23.832499 24.114475 -8.357075 11.233415 -0.356151 2.994165 6.689011 -2.739661 0.561828 0.000000 0.000000 0.000000 6.767274 -2.647715 0.806088 -7.061411 0.651889 3.401815 -21.911027 3.055701 1.503036 -0.000000 0.000001 0.000000 1.518821 -7.209067 -6.123053 0.000000 0.000000 0.000000 -29.320909 -21.015995 -35.448456 0.000005 -29.544950 -0.000003 -8.273326 6.667482 0.376825 -4.818359 -0.388131 0.088364 7.450104 23.644284 2.310973 -5.513979 12.822079 16.414975 -0.000001 -0.000002 0.000001 1.392519 -4.289626 -18.514959 0.313197 1.891585 -18.800948 0.005715 0.259013 -2.528354 -0.000001 0.000001 -0.000000 0.814289 5.226588 -29.279935 0.451072 2.256132 -22.609664 0.005067 0.243923 -2.380994 0.000000 -0.000000 -0.000000 3.703737 9.279075 -35.643831 0.291100 1.825436 -18.119689 0.391952 2.108679 -21.057282 0.000000 -0.000000 0.000003 -8.001709 17.864368 -33.635540 0.395801 2.118640 -21.161569 0.592481 2.569202 -25.967805 -0.000000 0.000000 0.000000 2.382970 6.831229 2.707433 0.000000 0.000000 0.000000 -16.474821 -9.604015 53.071605 0.000018 62.536577 -0.000020 -3.641340 3.447583 -8.284679 -8.636247 11.618380 -0.482706 7.832916 -27.003862 -3.053113 -3.237851 -28.163844 -19.305122 0.000001 -0.000001 -0.000002 9.241552 2.976994 1.678335 0.692457 -2.445340 31.616539 0.581271 -2.254944 28.905904 0.000001 -0.000000 0.000001 0.172063 -3.349966 13.232747 0.583249 -2.258518 28.956058 0.454343 -2.008165 25.494468 -0.000000 0.000002 0.000002 1.536018 -6.518382 24.725597 0.620942 -2.325330 29.898976 0.622263 -2.327591 29.931224 0.000002 0.000005 0.000001 -5.391438 -16.960663 33.120824 0.696245 -2.451506 31.705697 0.539896 -2.178407 27.836340 0.000001 0.000001 0.000001 -48.349017 5.961366 14.630335 45.806431 8.770556 -5.405304 2.585909 28.847311 -5.542622 -3.204776 0.201198 -3.582679 -0.000000 -0.000001 0.000000 -53.111961 -4.273717 -4.853155 34.986944 -7.163556 -4.741394 -2.097427 -6.229848 6.047387 -0.922047 0.000419 -0.163927 0.000000 -0.000000 0.000000 
9.544531 110.497704 136.081223 24.023973 24.897482 -8.622156 10.991644 0.157544 2.913234 6.739184 -2.514404 0.541702 0.000000 0.000000 0.000000 6.813281 -2.447946 0.778873 -6.528703 0.281434 2.942690 -23.266322 1.506236 1.300732 0.000001 0.000001 -0.000000 1.571522 -7.049215 -6.199185 0.000000 0.000000 0.000000 -27.840546 -21.494296 -35.479483 0.000002 -28.581688 -0.000000 -5.965532 5.303752 -2.777245 -4.821591 -0.408750 0.104045 7.450103 23.644283 2.310975 -5.513981 12.822081 16.414973 -0.000001 0.000002 0.000001 1.410549 -4.236788 -19.058285 0.332469 1.947235 -19.376227 0.004593 0.232293 -2.267377 0.000001 0.000000 0.000000 0.825882 5.247072 -29.510485 0.442710 2.235966 -22.396281 0.001680 0.140377 -1.369958 0.000001 0.000001 -0.000000 3.686992 9.272152 -35.517557 0.258882 1.723913 -17.079327 0.330393 1.941341 -19.315266 -0.000001 -0.000001 0.000003 -8.021497 17.813856 -33.080259 0.333923 1.951381 -19.419172 0.492504 2.353078 -23.639983 0.000000 0.000000 -0.000003 2.412593 6.644252 2.840668 0.000000 0.000000 0.000000 -17.278022 -10.440145 53.740065 0.000015 64.466904 -0.000027 -4.319504 3.303196 -8.566008 -8.559267 11.392674 -0.383839 7.832916 -27.003856 -3.053113 -3.240547 -28.121489 -19.296734 0.000000 -0.000000 -0.000001 9.265292 2.897260 4.050161 0.831886 -2.658373 34.747761 0.743576 -2.526440 32.795310 0.000002 0.000001 -0.000001 0.218728 -3.531515 15.536819 0.689728 -2.440921 31.552694 0.608805 -2.304087 29.598215 0.000001 0.000001 0.000002 1.695761 -6.638564 26.794596 0.720465 -2.490244 32.267286 0.744744 -2.528261 32.822054 -0.000000 0.000002 -0.000004 -5.286611 -17.043258 35.032395 0.792377 -2.600545 33.886327 0.697004 -2.452728 31.723271 -0.000000 0.000003 0.000004 -48.651946 6.284241 13.470669 42.388209 9.008703 -5.362807 3.535658 29.482238 -5.795784 -0.837724 0.009433 -0.786611 0.000001 -0.000001 0.000000 -49.973776 -4.580342 -4.616453 32.012714 -7.032540 -4.735448 -2.262375 -7.150974 5.932815 -0.917679 0.000393 -0.159019 -0.000000 0.000000 0.000000 
9.826044 111.932343 138.045471 24.184028 25.754277 -8.862648 10.736025 0.644782 2.835983 6.787127 -2.287289 0.523221 0.000000 0.000000 0.000000 6.856937 -2.249068 0.744098 -6.145218 0.029312 2.502970 -24.587516 -0.208403 0.944951 0.000002 0.000001 0.000000 1.618587 -6.835508 -6.264191 0.000000 0.000000 0.000000 -26.441479 -21.915702 -35.489636 0.000003 -27.829490 -0.000009 -4.158952 3.707718 -5.268046 -4.822754 -0.415830 0.109407 7.450105 23.644288 2.310977 -5.513980 12.822079 16.414973 0.000000 -0.000001 0.000002 1.429684 -4.182431 -19.619254 0.359070 2.021268 -20.144864 0.004118 0.219655 -2.143946 0.000002 0.000000 0.000002 0.838484 5.269137 -29.759370 0.446237 2.244496 -22.486513 0.000232 0.051790 -0.505357 -0.000000 0.000001 0.000003 3.688294 9.275096 -35.508617 0.236542 1.649486 -16.320416 0.281215 1.794960 -17.806814 0.000001 0.000001 0.000001 -8.038782 17.773820 -32.635597 0.284470 1.805058 -17.910388 0.408349 2.150752 -21.498459 0.000000 -0.000000 0.000001 2.446332 6.435835 2.980741 0.000000 0.000000 0.000000 -17.981409 -11.167554 54.420591 0.000051 66.639512 -0.000077 -4.845021 3.164064 -9.542829 -8.466638 11.117456 -0.246938 7.832915 -27.003860 -3.053115 -3.242667 -28.088272 -19.290153 0.000000 0.000001 0.000001 9.295348 2.878068 6.343584 0.977330 -2.856430 37.770325 0.917034 -2.776978 36.543483 0.000001 -0.000006 -0.000003 0.270639 -3.704755 17.759726 0.799789 -2.611559 34.049944 0.757828 -2.548420 33.117408 0.000000 -0.000001 -0.000001 1.852713 -6.746806 28.783462 0.815901 -2.635204 34.401586 0.850300 -2.684687 35.142628 -0.000001 -0.000001 -0.000003 -5.180593 -17.111975 36.727327 0.873721 -2.717622 35.639698 0.835484 -2.663557 34.825294 -0.000000 -0.000000 0.000002 -48.735708 6.486917 12.642829 38.984579 9.834395 -5.397564 5.475390 29.814551 -7.299550 0.042711 0.000025 -0.000006 0.000001 -0.000000 -0.000001 -47.092447 -5.016147 -4.430222 29.426217 -6.826593 -4.726254 -2.548944 -8.049296 5.749477 -0.912885 0.000367 -0.153646 0.000000 0.000000 0.000000 
10.121181 113.078117 139.837173 24.283155 26.671950 -9.117951 10.468402 1.115160 2.741891 6.831992 -2.056075 0.504971 0.000000 0.000000 0.000000 6.898566 -2.042593 0.728342 -5.916537 -0.334474 1.914442 -25.874862 -1.918015 0.673788 0.000002 0.000000 -0.000000 1.646207 -6.617207 -6.320244 0.000000 0.000000 0.000000 -25.016654 -22.020562 -35.430227 0.000006 -27.294809 -0.000001 -2.639173 2.137411 -7.461878 -4.821885 -0.409572 0.104700 7.450103 23.644286 2.310977 -5.513984 12.822078 16.414978 -0.000003 0.000001 -0.000001 1.449923 -4.126688 -20.196331 0.393224 2.111964 -21.091657 0.004087 0.219065 -2.138244 -0.000003 -0.000000 0.000001 0.852131 5.292780 -30.026680 0.460311 2.278167 -22.843146 0.000030 -0.018549 0.181053 0.000001 -0.000000 0.000001 3.705307 9.286610 -35.601825 0.223620 1.604726 -15.865449 0.243316 1.672440 -16.554248 -0.000000 -0.000001 -0.000004 -8.053288 17.745685 -32.316559 0.246343 1.682586 -16.657581 0.338954 1.965586 -19.566405 0.000001 0.000001 -0.000003 2.483089 6.243171 3.110965 0.000000 0.000000 0.000000 -18.599614 -11.797017 55.140442 -0.000013 68.895346 -0.000005 -5.221353 2.918466 -10.687377 -8.360205 10.798176 -0.075897 7.832918 -27.003853 -3.053114 -3.244256 -28.063519 -19.285265 -0.000000 -0.000001 -0.000001 9.320953 2.929874 8.482602 1.121877 -3.033569 40.583078 1.092422 -2.998893 40.023269 -0.000000 -0.000000 -0.000002 0.324902 -3.863883 19.826979 0.908253 -2.765113 36.361895 0.882563 -2.729904 35.825872 -0.000000 -0.000003 -0.000003 2.000292 -6.840069 30.623488 0.900142 -2.754060 36.193306 0.924661 -2.787192 36.700232 0.000001 -0.000001 0.000000 -5.078696 -17.159247 38.110950 0.930546 -2.795074 36.821079 0.933374 -2.798850 36.879251 -0.000002 0.000001 0.000001 -48.938688 6.706858 11.831328 35.508572 9.891998 -5.364093 8.117045 29.736977 -9.538018 0.086680 0.000024 -0.000003 -0.000000 0.000001 -0.000000 -44.524255 -5.562052 -4.292306 27.281352 -6.534043 -4.711551 -2.895990 -8.949648 5.573367 -0.912160 0.000361 -0.152831 0.000000 -0.000000 0.000000 
